# xmcd
# 
# Track frame offsets:
#     150
#     21769
#     47221
#     68952
# 
# Disc length: 1136
# 
# Revision: 0
# Processed by: cddbd v1.5.2PL0 Copyright (c) Steve Scherf et al.
# Submitted via: BonkEnc v1.0.8
# 
DISCID=31046e04
DTITLE=Dahlia Indaco - Mothermech
DYEAR=2007
DGENRE=Industrial
TTITLE0=Sacrifice
TTITLE1=Maternalia
TTITLE2=Blessing
TTITLE3=Chronicles of Nowhere
EXTD=
EXTT0=
EXTT1=
EXTT2=
EXTT3=
PLAYORDER=
